<svg width="24" height="24" viewBox="0 0 24 24" fill="none" xmlns="http://www.w3.org/2000/svg">
<path fill-rule="evenodd" clip-rule="evenodd" d="M8 7V6C8 4.93913 8.42143 3.92172 9.17157 3.17157C9.92172 2.42143 10.9391 2 12 2C13.0609 2 14.0783 2.42143 14.8284 3.17157C15.5786 3.92172 16 4.93913 16 6V7H19C19.552 7 20 7.449 20 8.007V20.008C20 21.108 19.105 22 18.006 22H5.994C5.4655 22 4.95863 21.7902 4.58474 21.4167C4.21085 21.0432 4.00053 20.5365 4 20.008V8.008C4 7.45 4.445 7 5 7H8ZM9.2 7H14.8V6C14.8 5.25739 14.505 4.5452 13.9799 4.0201C13.4548 3.495 12.7426 3.2 12 3.2C11.2574 3.2 10.5452 3.495 10.0201 4.0201C9.495 4.5452 9.2 5.25739 9.2 6V7ZM8 8.2H5.2V20.008C5.2 20.444 5.556 20.8 5.994 20.8H18.006C18.2162 20.8 18.4179 20.7166 18.5667 20.5681C18.7156 20.4197 18.7995 20.2182 18.8 20.008V8.2H16V11H14.8V8.2H9.2V11H8V8.2Z" fill="black"/>
</svg>
